<svg width="60" height="60" fill="none" xmlns="http://www.w3.org/2000/svg"><circle cx="30" cy="30" r="30" fill="#fff"/><path d="M32.93 11c1.963 3.955-7.037 6.407-7.874 9.697-.767 3.031 5.337 6.54 5.344 6.54-.929-1.253-1.602-2.274-2.53-4.228C26.3 19.71 37.163 16.3 32.93 11zm6.47 5.413s-6.849.443-7.2 4.624c-.155 1.86 1.8 2.874 1.856 4.227.05 1.108-1.181 1.974-1.181 1.974s2.01-.29 2.7-1.974c.76-1.867-1.301-3.233-1.07-4.734.219-1.438 4.895-4.12 4.895-4.12v.003zM26.63 27.238s-7.03-.042-7.03 1.917c0 2.05 9.176 2.164 15.75.902 0 0 1.505-.804 1.97-1.24-4.312.865-13.84.577-13.84-.17 0-.69 3.15-1.408 3.15-1.408v-.001zm14.007.056a3.846 3.846 0 00-2.362.734c1.52-.332 2.813.606 2.813 1.69 0 2.432-3.488 4.736-3.488 4.736s5.4-.62 5.4-4.622c0-1.656-1.076-2.48-2.363-2.537v-.002zm-16.481 3.554c-1.098 0-2.756.907-2.756 1.746 0 1.692 8.276 2.973 14.4.507l-2.138-1.353c-4.155 1.368-11.77.924-9.504-.902l-.002.002zm1.519 3.608c-1.512 0-2.475 1.055-2.475 1.804 0 2.304 9.022 2.346 12.6 0l-2.25-1.41c-2.671 1.226-9.421 1.381-7.875-.396v.002zm-6.525 3.55c-2.151-.072-3.15 1.016-3.15 1.919 0 4.791 23.4 4.615 23.4-.284 0-.81-.907-1.227-1.238-1.409 1.913 4.687-19.35 4.341-19.35 1.579 0-.628 1.098-1.247 2.532-.958 0 0-.486-.614-1.182-.735a6.873 6.873 0 00-1.012-.111zM43 41.616c-3.713 3.645-13.936 5.856-23.4 3.608 9.506 3.861 23.359.866 23.4-3.608z" fill="#000"/></svg>