<svg width="80" height="79" fill="none" xmlns="http://www.w3.org/2000/svg"><mask id="a" maskUnits="userSpaceOnUse" x="0" y="-1" width="80" height="80"><path fill="#FFC857" d="M0-1h80v80H0z"/></mask><g mask="url(#a)"><path fill="#FFC857" d="M0-1h80v80H0z"/><path d="M15.679 29.475l-4.922 5.4V48H-1.24V-1.766h11.997v21.944l4.17-6.324 10.732-15.62h14.834L23.677 20.246 40.493 48H26.274L15.68 29.475zm56.75 40.297c0-1.754-.627-3.121-1.88-4.101-1.23-.98-3.407-1.994-6.529-3.042-3.121-1.048-5.673-2.062-7.656-3.042-6.448-3.167-9.673-7.52-9.673-13.057 0-2.757.798-5.184 2.393-7.28 1.618-2.12 3.896-3.76 6.836-4.922 2.94-1.185 6.243-1.777 9.912-1.777 3.578 0 6.779.638 9.605 1.914 2.848 1.276 5.058 3.099 6.63 5.469 1.573 2.347 2.359 5.035 2.359 8.066H72.463c0-2.028-.627-3.6-1.88-4.717-1.23-1.116-2.905-1.675-5.024-1.675-2.142 0-3.84.479-5.093 1.436-1.23.934-1.846 2.13-1.846 3.589 0 1.276.684 2.438 2.05 3.486 1.368 1.026 3.772 2.096 7.213 3.213 3.44 1.094 6.266 2.279 8.476 3.555 5.378 3.099 8.067 7.371 8.067 12.817 0 4.352-1.64 7.77-4.922 10.254-3.281 2.484-7.782 3.726-13.501 3.726-4.033 0-7.69-.718-10.972-2.154-3.258-1.458-5.72-3.44-7.383-5.947-1.64-2.53-2.46-5.435-2.46-8.716h12.03c0 2.666.684 4.637 2.051 5.913 1.39 1.254 3.635 1.88 6.734 1.88 1.982 0 3.543-.421 4.683-1.264 1.162-.866 1.743-2.074 1.743-3.624z" fill="#101010"/></g></svg>