<svg width="80" height="79" viewBox="0 0 334 334" xmlns="http://www.w3.org/2000/svg" fill-rule="evenodd" clip-rule="evenodd" stroke-linejoin="round" stroke-miterlimit="2"><path d="M333.367 161.501c-5.154-5.139-11.435-9.326-18.736-12.675-11.691-5.362-25.463-8.043-41.317-8.043-15.521 0-29.343 2.664-41.467 7.993-12.123 5.329-21.616 12.757-28.477 22.283-6.861 9.525-10.258 20.616-10.192 33.273-.066 15.521 4.996 27.828 15.188 36.92 10.192 9.093 24.147 15.671 41.866 19.735l21.383 4.996c7.461 1.732 13.606 3.613 18.436 5.645 4.829 2.032 8.41 4.43 10.741 7.194 2.332 2.765 3.531 6.079 3.597 9.942-.066 4.13-1.365 7.794-3.897 10.992-2.531 3.197-6.145 5.695-10.841 7.494-4.696 1.798-10.375 2.697-17.036 2.697-7.261 0-13.64-1.132-19.135-3.397-5.496-2.265-9.809-5.595-12.94-9.992-3.131-4.396-4.896-9.892-5.296-16.487h-47.362c.2 15.988 3.831 29.21 10.892 39.669a60.025 60.025 0 0012.795 13.743H.033V186.524h44.616v-51.532l18.384-23.212 47.354 74.744h54.967L96.738 81.232 161.142.15h172.225v161.351z" fill="#ffc857"/><path d="M333.367 245.254c-4.147-3.536-9.077-6.521-14.639-9.147-7.761-3.664-16.704-6.595-26.829-8.793l-17.586-3.997c-4.663-.999-8.859-2.165-12.59-3.497-3.73-1.333-6.911-2.881-9.542-4.647-2.631-1.765-4.63-3.813-5.995-6.145-1.366-2.331-1.982-5.029-1.849-8.093.067-3.731 1.166-7.045 3.298-9.942 2.131-2.898 5.329-5.18 9.592-6.845 4.263-1.665 9.592-2.498 15.987-2.498 9.659 0 17.103 2.048 22.332 6.145 5.229 4.097 8.177 9.809 8.843 17.136h28.978v40.323zM107.058.15L47.155 76.775h-2.506V.15h62.409z" fill="#ffc857"/><path d="M211.569 333.483a60.025 60.025 0 01-12.795-13.743c-7.061-10.459-10.692-23.681-10.892-39.669h47.362c.4 6.595 2.165 12.091 5.296 16.487 3.131 4.397 7.444 7.727 12.94 9.992 5.495 2.265 11.874 3.397 19.135 3.397 6.661 0 12.34-.899 17.036-2.697 4.696-1.799 8.31-4.297 10.841-7.494 2.532-3.198 3.831-6.862 3.897-10.992-.066-3.863-1.265-7.177-3.597-9.942-2.331-2.764-5.912-5.162-10.741-7.194-4.83-2.032-10.975-3.913-18.436-5.645l-21.383-4.996c-17.719-4.064-31.674-10.642-41.866-19.735-10.192-9.092-15.254-21.399-15.188-36.92-.066-12.657 3.331-23.748 10.192-33.273 6.861-9.526 16.354-16.954 28.477-22.283 12.124-5.329 25.946-7.993 41.467-7.993 15.854 0 29.626 2.681 41.317 8.043 7.301 3.349 13.582 7.536 18.736 12.675v43.43h-28.978c-.666-7.327-3.614-13.039-8.843-17.136-5.229-4.097-12.673-6.145-22.332-6.145-6.395 0-11.724.833-15.987 2.498-4.263 1.665-7.461 3.947-9.592 6.845-2.132 2.897-3.231 6.211-3.298 9.942-.133 3.064.483 5.762 1.849 8.093 1.365 2.332 3.364 4.38 5.995 6.145 2.631 1.766 5.812 3.314 9.542 4.647 3.731 1.332 7.927 2.498 12.59 3.497l17.586 3.997c10.125 2.198 19.068 5.129 26.829 8.793 5.562 2.626 10.492 5.611 14.639 9.147v88.229H211.569z" fill="none"/></svg>
