<?xml version="1.0" encoding="UTF-8" standalone="no"?><!DOCTYPE svg PUBLIC "-//W3C//DTD SVG 1.1//EN" "http://www.w3.org/Graphics/SVG/1.1/DTD/svg11.dtd"><svg width="100%" height="100%" viewBox="0 0 334 334" version="1.1" xmlns="http://www.w3.org/2000/svg" xmlns:xlink="http://www.w3.org/1999/xlink" xml:space="preserve" xmlns:serif="http://www.serif.com/" style="fill-rule:evenodd;clip-rule:evenodd;stroke-linejoin:round;stroke-miterlimit:2;"><g id="Logo"><path d="M333.367,161.501c-5.154,-5.139 -11.435,-9.326 -18.736,-12.675c-11.691,-5.362 -25.463,-8.043 -41.317,-8.043c-15.521,0 -29.343,2.664 -41.467,7.993c-12.123,5.329 -21.616,12.757 -28.477,22.283c-6.861,9.525 -10.258,20.616 -10.192,33.273c-0.066,15.521 4.996,27.828 15.188,36.92c10.192,9.093 24.147,15.671 41.866,19.735l21.383,4.996c7.461,1.732 13.606,3.613 18.436,5.645c4.829,2.032 8.41,4.43 10.741,7.194c2.332,2.765 3.531,6.079 3.597,9.942c-0.066,4.13 -1.365,7.794 -3.897,10.992c-2.531,3.197 -6.145,5.695 -10.841,7.494c-4.696,1.798 -10.375,2.697 -17.036,2.697c-7.261,0 -13.64,-1.132 -19.135,-3.397c-5.496,-2.265 -9.809,-5.595 -12.94,-9.992c-3.131,-4.396 -4.896,-9.892 -5.296,-16.487l-47.362,0c0.2,15.988 3.831,29.21 10.892,39.669c3.549,5.256 7.813,9.839 12.795,13.743l-211.536,0l0,-146.959l44.616,0l0,-51.532l18.384,-23.212l47.354,74.744l54.967,0l-68.616,-105.292l64.404,-81.082l172.225,0l0,161.351Z" style="fill:#ffc857;"/><path d="M333.367,245.254c-4.147,-3.536 -9.077,-6.521 -14.639,-9.147c-7.761,-3.664 -16.704,-6.595 -26.829,-8.793l-17.586,-3.997c-4.663,-0.999 -8.859,-2.165 -12.59,-3.497c-3.73,-1.333 -6.911,-2.881 -9.542,-4.647c-2.631,-1.765 -4.63,-3.813 -5.995,-6.145c-1.366,-2.331 -1.982,-5.029 -1.849,-8.093c0.067,-3.731 1.166,-7.045 3.298,-9.942c2.131,-2.898 5.329,-5.18 9.592,-6.845c4.263,-1.665 9.592,-2.498 15.987,-2.498c9.659,0 17.103,2.048 22.332,6.145c5.229,4.097 8.177,9.809 8.843,17.136l28.978,0l0,40.323Z" style="fill:#ffc857;"/><path d="M107.058,0.15l-59.903,76.625l-2.506,0l0,-76.625l62.409,0Z" style="fill:#ffc857;"/><path d="M211.569,333.483c-4.982,-3.904 -9.246,-8.487 -12.795,-13.743c-7.061,-10.459 -10.692,-23.681 -10.892,-39.669l47.362,0c0.4,6.595 2.165,12.091 5.296,16.487c3.131,4.397 7.444,7.727 12.94,9.992c5.495,2.265 11.874,3.397 19.135,3.397c6.661,0 12.34,-0.899 17.036,-2.697c4.696,-1.799 8.31,-4.297 10.841,-7.494c2.532,-3.198 3.831,-6.862 3.897,-10.992c-0.066,-3.863 -1.265,-7.177 -3.597,-9.942c-2.331,-2.764 -5.912,-5.162 -10.741,-7.194c-4.83,-2.032 -10.975,-3.913 -18.436,-5.645l-21.383,-4.996c-17.719,-4.064 -31.674,-10.642 -41.866,-19.735c-10.192,-9.092 -15.254,-21.399 -15.188,-36.92c-0.066,-12.657 3.331,-23.748 10.192,-33.273c6.861,-9.526 16.354,-16.954 28.477,-22.283c12.124,-5.329 25.946,-7.993 41.467,-7.993c15.854,0 29.626,2.681 41.317,8.043c7.301,3.349 13.582,7.536 18.736,12.675l0,43.43l-28.978,0c-0.666,-7.327 -3.614,-13.039 -8.843,-17.136c-5.229,-4.097 -12.673,-6.145 -22.332,-6.145c-6.395,0 -11.724,0.833 -15.987,2.498c-4.263,1.665 -7.461,3.947 -9.592,6.845c-2.132,2.897 -3.231,6.211 -3.298,9.942c-0.133,3.064 0.483,5.762 1.849,8.093c1.365,2.332 3.364,4.38 5.995,6.145c2.631,1.766 5.812,3.314 9.542,4.647c3.731,1.332 7.927,2.498 12.59,3.497l17.586,3.997c10.125,2.198 19.068,5.129 26.829,8.793c5.562,2.626 10.492,5.611 14.639,9.147l0,88.229l-121.798,0Z" style="fill:none;"/></g></svg>