<svg width="60" height="60" fill="none" xmlns="http://www.w3.org/2000/svg"><circle cx="30" cy="30" r="30" fill="#fff"/><path d="M18.494 26.971c1.192 0 1.93.197 2.323.649.392.392.437 1.191.24 2.171-.195 1.086-.587 1.87-1.236 2.323-.588.437-1.523.693-2.76.693h-1.869l1.131-5.926c0 .09 2.171.09 2.171.09zM11 38.81h3.061l.694-3.755h2.669c1.191 0 2.066-.106 2.865-.347a5.062 5.062 0 002.02-1.236c.498-.438.935-1.04 1.282-1.584a6.118 6.118 0 00.649-1.87c.301-1.673.105-2.955-.694-3.89-.784-.935-2.066-1.387-3.845-1.387h-5.926L11 38.809zM27.33 21h3.062l-.694 3.755h2.715c1.674 0 2.91.301 3.498.935.648.588.89 1.583.543 2.91l-1.282 6.56h-3.106l1.236-6.213c.151-.694.106-1.191-.15-1.433-.242-.241-.74-.392-1.523-.392h-2.413l-1.584 8.038h-3.06L27.33 21zM43.21 26.971c1.19 0 1.93.197 2.322.649.392.392.437 1.191.241 2.171-.196 1.086-.588 1.87-1.237 2.323-.588.437-1.523.693-2.759.693h-1.87l1.131-5.926c.06.09 2.172.09 2.172.09zM35.76 38.81h3.061l.694-3.755h2.67c1.19 0 2.065-.106 2.864-.347a5.063 5.063 0 002.02-1.236c.498-.438.936-1.04 1.283-1.584a6.115 6.115 0 00.648-1.87c.302-1.673.106-2.955-.694-3.89-.784-.935-2.066-1.387-3.845-1.387h-5.926L35.76 38.809z" fill="#000"/></svg>