<svg width="60" height="60" fill="none" xmlns="http://www.w3.org/2000/svg"><circle cx="30" cy="30" r="30" fill="#fff"/><path d="M30.35 33.186c1.725 0 3.123-1.372 3.123-3.064s-1.398-3.064-3.122-3.064c-1.725 0-3.123 1.372-3.123 3.064s1.398 3.064 3.123 3.064z" fill="#000"/><path d="M46.014 27.07c-1.082-.878-2.6-1.672-4.416-2.282-.361-.122-.734-.244-1.12-.342.062-.256.124-.513.174-.757.871-4.126.249-7.336-1.605-8.386-.908-.513-2.152-.513-3.583 0-1.319.476-2.774 1.38-4.218 2.612-.286.245-.584.513-.87.782-.2-.183-.386-.354-.585-.525-3.21-2.796-6.358-3.882-8.212-2.832-.908.512-1.53 1.575-1.791 3.052-.236 1.354-.162 3.051.2 4.894.074.366.16.757.26 1.136-.448.122-.883.256-1.294.402-3.794 1.294-6.059 3.272-6.059 5.298 0 1.05.635 2.148 1.83 3.15 1.12.94 2.7 1.77 4.565 2.392.311.097.622.195.946.293-.1.415-.2.818-.274 1.22-.746 3.87-.124 6.787 1.655 7.8.473.269 1.032.403 1.667.403.61 0 1.294-.122 2.015-.378 1.394-.476 2.912-1.404 4.392-2.673.237-.208.486-.428.722-.66.31.293.634.574.945.843 2.24 1.892 4.38 2.893 6.072 2.893.61 0 1.17-.135 1.63-.403.933-.525 1.58-1.611 1.866-3.125.261-1.428.199-3.186-.174-5.078-.063-.305-.125-.61-.212-.916.224-.06.436-.134.647-.195 4.08-1.318 6.606-3.454 6.606-5.554.013-1.037-.61-2.1-1.779-3.064zm-10.04-10.387c.995-.354 1.817-.391 2.327-.11.995.561 1.704 2.942.883 6.823-.05.22-.1.452-.162.671a35.364 35.364 0 00-4.678-.72 33.665 33.665 0 00-2.948-3.6c.261-.257.535-.489.796-.72 1.331-1.112 2.638-1.93 3.782-2.344zm-.746 16.234a52.207 52.207 0 01-1.668 2.65c-1.032.072-2.102.109-3.197.109-1.095 0-2.152-.037-3.16-.098a41.955 41.955 0 01-1.704-2.649 49.933 49.933 0 01-1.493-2.758c.447-.928.945-1.856 1.48-2.759a40.522 40.522 0 011.692-2.649 45.356 45.356 0 013.173-.122c1.082 0 2.14.037 3.185.122a46.028 46.028 0 011.68 2.637c.547.94 1.057 1.855 1.505 2.746a40.373 40.373 0 01-1.493 2.771zm2.301-1.086a29.06 29.06 0 011.17 3.015 30.04 30.04 0 01-3.26.55c.361-.562.722-1.148 1.07-1.746.373-.61.71-1.221 1.02-1.82zm-7.116 7.739a30.71 30.71 0 01-2.103-2.466c.66.025 1.344.037 2.04.037.71 0 1.419-.012 2.116-.05a34.083 34.083 0 01-2.053 2.479zm-5.114-4.163a28.866 28.866 0 01-3.21-.512 31.18 31.18 0 011.133-3.015c.31.586.647 1.184.995 1.77.336.61.697 1.196 1.082 1.757zm-1.094-8.74c-.349.586-.672 1.185-.996 1.77a30.068 30.068 0 01-1.107-2.966c.995-.22 2.065-.402 3.173-.537a36.26 36.26 0 00-1.07 1.733zm6.17-5.87a32.93 32.93 0 012.053 2.428 39.043 39.043 0 00-2.077-.049c-.685 0-1.369.013-2.04.05a29.747 29.747 0 012.065-2.43zm6.134 5.858a45.043 45.043 0 00-1.057-1.709 30.8 30.8 0 013.185.55c-.299.952-.672 1.94-1.12 2.954a32.587 32.587 0 00-1.008-1.795zm-15.054-3.65c-.336-1.66-.398-3.173-.186-4.357.174-1.026.56-1.746 1.07-2.039.995-.561 3.446.025 6.469 2.661.174.147.348.306.523.476a34.077 34.077 0 00-2.962 3.601c-1.642.147-3.21.391-4.665.708-.1-.354-.174-.695-.249-1.05zm-1.692 11.28c-3.695-1.233-5.375-3.028-5.375-4.163 0-1.086 1.568-2.722 5.064-3.918a16.95 16.95 0 011.194-.367 33.441 33.441 0 001.705 4.334 34.123 34.123 0 00-1.717 4.382c-.299-.085-.585-.183-.87-.269zm3.521 9.63c-.373 0-.684-.073-.92-.207-.959-.537-1.618-2.685-.934-6.25.075-.366.162-.744.25-1.135 1.417.305 2.997.537 4.702.671a36.784 36.784 0 002.998 3.638c-.224.207-.448.415-.66.598-2.264 1.916-4.204 2.685-5.436 2.685zm16.024-6.835c.76 3.76.025 6.079-.97 6.64-.958.55-3.185.037-5.984-2.331a46.37 46.37 0 01-.884-.782 32.32 32.32 0 002.924-3.65 34.892 34.892 0 004.728-.72c.062.293.124.574.186.843zm1.431-2.796a32.93 32.93 0 01-.585.184c-.435-1.368-1.032-2.82-1.766-4.334a35.057 35.057 0 001.704-4.284c.361.097.71.207 1.045.317 1.63.55 2.999 1.257 3.944 2.026.809.66 1.257 1.343 1.257 1.929-.013 1.135-1.767 2.917-5.599 4.162z" fill="#000"/></svg>