<svg width="61" height="61" fill="none" xmlns="http://www.w3.org/2000/svg"><path d="M30.731 60.656c16.547 0 30-13.453 30-30s-13.453-30-30-30-30 13.453-30 30 13.453 30 30 30zM10.821 32.81c.47-1.48 1.614-1.75 2.825-1.413 1.21.404 1.749 1.884 1.345 3.027a3.134 3.134 0 00-.201.605l-.539.942c-.269.942.942 1.547 1.817 1.816 1.95.606 3.834-.403 4.304-2.018.471-1.48-.47-2.488-.874-2.825l-1.816-1.95c-.874-.942-2.69-3.566-1.816-6.525.336-1.144 1.076-2.354 2.152-3.162 2.22-1.681 4.709-1.95 6.996-1.278 3.027.875 4.44 2.893 6.323 4.373 1.076-3.095 2.488-6.121 4.708-8.678 1.95-2.354 4.641-3.968 7.668-4.103 3.027-.067 5.314 1.278 5.449 3.43 0 .943-.471 2.759-2.355 2.826-1.412.067-2.354-.807-2.421-2.018 0-.47.134-.874.404-1.345.336-.606.403-.673.336-.942 0-.807-1.21-.807-1.547-.807-4.507.134-5.718 6.256-6.66 11.166l-.47 2.623c2.623.404 4.44-.067 5.448-.74 1.413-.941-.403-1.883-.202-2.96a2.104 2.104 0 012.018-1.614c1.077 0 1.884 1.144 1.884 2.287-.068 1.884-2.556 4.574-7.668 4.44-.606 0-1.211-.068-1.75-.135l-.74 5.314c-.874 4.036-2.017 9.484-6.053 14.26-3.498 4.17-7.063 4.843-8.677 4.843-2.96.067-4.978-1.48-5.045-3.632-.067-2.085 1.749-3.161 2.96-3.229 1.614-.067 2.69 1.076 2.758 2.422.067 1.143-.539 1.48-.942 1.681-.27.202-.673.404-.606.875 0 .202.202.672.875.605 1.278-.067 2.085-.672 2.69-1.076 2.893-2.422 4.036-6.66 5.516-14.327l.336-1.884c.471-2.489 1.077-5.247 1.884-8.072-2.018-1.547-3.296-3.43-6.054-4.17-1.883-.538-3.027-.067-3.834.942-.942 1.21-.673 2.758.269 3.7l1.547 1.68c1.884 2.153 2.893 3.835 2.489 6.122-.605 3.632-4.91 6.39-10.022 4.843-4.44-1.144-5.247-4.238-4.71-5.92z" fill="#fff"/></svg>