<svg width="60" height="60" fill="none" xmlns="http://www.w3.org/2000/svg"><path fill-rule="evenodd" clip-rule="evenodd" d="M0 30c0-4.351.934-8.48 2.597-12.21l14.31 39.208C6.9 52.136 0 41.874 0 29.999zm50.252-1.514c0 2.567-.988 5.546-2.282 9.698l-2.995 9.998-10.841-32.248c1.806-.095 3.433-.287 3.433-.287 1.617-.189 1.427-2.567-.191-2.471 0 0-4.858.38-7.995.38-2.948 0-7.902-.38-7.902-.38-1.618-.096-1.807 2.376-.191 2.471 0 0 1.532.192 3.148.287L29.11 28.74l-6.567 19.69-10.924-32.495c1.808-.095 3.434-.287 3.434-.287 1.616-.189 1.425-2.567-.192-2.471 0 0-4.858.38-7.995.38-.563 0-1.226-.012-1.931-.035C10.298 5.378 19.518 0 29.999 0c7.81 0 14.922 2.985 20.259 7.875-.13-.007-.255-.024-.389-.024-2.947 0-5.038 2.567-5.038 5.325 0 2.471 1.427 4.564 2.948 7.037 1.14 1.997 2.473 4.564 2.473 8.273zm6.073-12.88A29.855 29.855 0 0160 30c0 11.066-5.998 20.73-14.918 25.93l9.163-26.493c1.712-4.28 2.282-7.703 2.282-10.746 0-1.104-.073-2.128-.202-3.084zM30.526 32.624l9.222 25.265c.06.148.135.283.214.413a29.96 29.96 0 01-9.963 1.7 29.97 29.97 0 01-8.475-1.222l9.002-26.156z" fill="#fff"/></svg>